<?xml version="1.0" standalone="no"?><!DOCTYPE svg PUBLIC "-//W3C//DTD SVG 1.1//EN" "http://www.w3.org/Graphics/SVG/1.1/DTD/svg11.dtd"><svg t="1547021136802" class="icon" style="" viewBox="0 0 1024 1024" version="1.1" xmlns="http://www.w3.org/2000/svg" p-id="12313" xmlns:xlink="http://www.w3.org/1999/xlink" width="32" height="32"><defs><style type="text/css"></style></defs><path d="M496 528a48 48 0 0 0 48-48V48a48 48 0 1 0-96 0v432a48 48 0 0 0 48 48zM672 130.592v0.144A48 48 0 0 0 608 176c0 20.896 13.36 38.672 32 45.264v0.048C771.664 277.36 864 407.872 864 560c0 203.248-164.752 368-368 368S128 763.248 128 560c0-152.128 92.336-282.656 224-338.688v-0.048a48.016 48.016 0 0 0-32-90.528v-0.144C151.024 199.92 32 366.048 32 560c0 256.256 207.744 464 464 464s464-207.744 464-464c0-193.952-119.024-360.08-288-429.408z" fill="" p-id="12314"></path></svg>