<?xml version="1.0" standalone="no"?><!DOCTYPE svg PUBLIC "-//W3C//DTD SVG 1.1//EN" "http://www.w3.org/Graphics/SVG/1.1/DTD/svg11.dtd"><svg t="1546790901355" class="icon" style="" viewBox="0 0 1024 1024" version="1.1" xmlns="http://www.w3.org/2000/svg" p-id="7235" xmlns:xlink="http://www.w3.org/1999/xlink" width="200" height="200"><defs><style type="text/css"></style></defs><path d="M512 66.016q18.016 0 30.336 12.32l213.344 213.344q12.32 12.32 12.32 30.336 0 18.336-12.16 30.496t-30.496 12.16q-18.016 0-30.336-12.32l-140.32-140.672 0 494.336q0 17.664-12.512 30.176t-30.176 12.512-30.176-12.512-12.512-30.176l0-494.336-140.32 140.672q-12.992 12.32-30.336 12.32-17.664 0-30.176-12.512t-12.512-30.176q0-17.344 12.32-30.336l213.344-213.344q12.32-12.32 30.336-12.32zM938.656 663.328q17.664 0 30.176 12.512t12.512 30.176l0 170.656q0 53.344-36.992 90.336-37.664 37.664-90.016 37.664l-683.68 0q-52.32 0-90.656-37.344-37.344-38.336-37.344-90.656l0-170.656q0-17.664 12.512-30.176t30.176-12.512 30.176 12.512 12.512 30.176l0 170.656q0 17.664 12.512 30.176t30.176 12.512l683.68 0q17.344 0 29.504-12.512t12.16-30.176l0-170.656q0-17.664 12.512-30.176t30.176-12.512z" p-id="7236"></path></svg>